:version 1.10
:name ASF
:units
  mass 1
  length 1
  angle deg
:documentation
  ASF file generated by Kaydara
:root
  axis xyz
  order  tx ty tz rx ry rz
  position 0 0 0
  orientation 0 0 0
:bonedata
  begin
    id 1
    name RightUpLegDummy
    direction -1 2.30186e-007 8.31532e-007
    length 4.46685
    axis 0 0 0 xyz
  end
  begin
    id 2
    name RightUpLeg
    direction -2.30187e-007 -1 1.24343e-010
    length 16.4045
    axis -3.49089 -0.000906625 0.000286804 xyz
    dof rx ry rz
  end
  begin
    id 3
    name RightLeg
    direction -2.30181e-007 -1 -4.17157e-009
    length 17.5097
    axis 3.68512 0.0193738 -0.131023 xyz
    dof rx ry rz
  end
  begin
    id 4
    name RightFoot
    direction 8.31421e-007 -4.51202e-011 1
    length 6.49508
    axis 4.81691e-005 -0.120479 -0.188788 xyz
    dof rx ry rz
  end
  begin
    id 5
    name RightToes
    direction 0.00124746 -0.014064 0.9999
    length 3.85082
    axis 0.000481921 0.542163 -0.142578 xyz
    dof rx ry rz
  end
  begin
    id 6
    name SpineDummy
    direction 0.0717043 0.9409 -0.331007
    length 10.0032
    axis 0 0 0 xyz
  end
  begin
    id 7
    name Spine
    direction 2.30186e-007 1 4.58806e-011
    length 9.84055
    axis -0.001389 0.000121418 2.40972e-006 xyz
    dof rx ry rz
  end
  begin
    id 8
    name Spine1
    direction 0 0 0
    length 0
    axis -0.001389 0.000121451 1.30017e-006 xyz
    dof rx ry rz
  end
  begin
    id 9
    name HEadDummy
    direction -0.00347485 0.950688 -0.310128
    length 8.00997
    axis -0.001389 0.000121451 1.30017e-006 xyz
  end
  begin
    id 10
    name HEad
    direction -0.0222688 0.980941 0.193023
    length 5.12695
    axis -0.001389 0.000121451 1.30017e-006 xyz
    dof rx ry rz
  end
  begin
    id 11
    name LeftShoulder1Dummy
    direction 0.988871 0.146793 -0.0242004
    length 3.5792
    axis -0.001389 0.000121451 1.30017e-006 xyz
  end
  begin
    id 12
    name LeftShoulder1
    direction 0.993832 0.108932 0.020779
    length 4.16823
    axis -0.001389 0.000121451 1.30017e-006 xyz
    dof rx ry rz
  end
  begin
    id 13
    name LeftArm
    direction 1 3.44807e-006 -8.31404e-007
    length 9.91437
    axis -23.1894 0.134784 0.967509 xyz
    dof rx ry rz
  end
  begin
    id 14
    name LeftForeArm
    direction 1 3.44842e-006 -8.31581e-007
    length 9.08575
    axis -9.91835 -0.06569 -0.177793 xyz
    dof rx ry rz
  end
  begin
    id 15
    name LeftHand
    direction 0.992938 -0.0411636 0.11126
    length 5.32135
    axis -0.00960232 -0.00340091 0.185173 xyz
    dof rx ry rz
  end
  begin
    id 16
    name RightShoulderDummy
    direction -0.988871 0.146793 -0.0241962
    length 3.5792
    axis -0.001389 0.000121451 1.30017e-006 xyz
  end
  begin
    id 17
    name RightShoulder
    direction -0.993832 0.108933 0.0207785
    length 4.16823
    axis 0.215806 0.000203643 -0.0068026 xyz
    dof rx ry rz
  end
  begin
    id 18
    name RightArm
    direction -1 3.90912e-006 8.31284e-007
    length 9.91437
    axis -23.2009 -0.134239 -0.964101 xyz
    dof rx ry rz
  end
  begin
    id 19
    name RightForeArm
    direction -1 3.90882e-006 8.31502e-007
    length 9.08575
    axis -9.92322 0.0658061 0.178867 xyz
    dof rx ry rz
  end
  begin
    id 20
    name RightHand
    direction -0.992843 -0.0414603 0.112003
    length 5.28593
    axis -0.00960638 0.00330671 -0.185228 xyz
    dof rx ry rz
  end
  begin
    id 21
    name LeftUpLegDummy
    direction 1 -2.30186e-007 -8.31532e-007
    length 4.46685
    axis 0 0 0 xyz
  end
  begin
    id 22
    name LeftUpLeg
    direction -2.30187e-007 -1 6.00931e-010
    length 16.4045
    axis -3.48766 0.00143442 -0.000524262 xyz
    dof rx ry rz
  end
  begin
    id 23
    name LeftLeg
    direction -2.30187e-007 -1 1.6669e-009
    length 17.5097
    axis 3.68178 -0.00654042 -0.000285133 xyz
    dof rx ry rz
  end
  begin
    id 24
    name LeftFoot
    direction 8.31532e-007 -4.54478e-011 1
    length 6.49508
    axis 1.87233e-006 4.66016e-005 -8.6538e-006 xyz
    dof rx ry rz
  end
  begin
    id 25
    name LeftToes
    direction 0.00818058 -0.00485161 0.999955
    length 3.85048
    axis 1.06247e-005 4.65869e-005 -8.65513e-006 xyz
    dof rx ry rz
  end
:hierarchy
  begin
    root RightUpLegDummy SpineDummy LeftUpLegDummy
    RightUpLegDummy RightUpLeg
    RightUpLeg RightLeg
    RightLeg RightFoot
    RightFoot RightToes
    SpineDummy Spine
    Spine Spine1
    Spine1 HEadDummy LeftShoulder1Dummy RightShoulderDummy
    HEadDummy HEad
    LeftShoulder1Dummy LeftShoulder1
    LeftShoulder1 LeftArm
    LeftArm LeftForeArm
    LeftForeArm LeftHand
    RightShoulderDummy RightShoulder
    RightShoulder RightArm
    RightArm RightForeArm
    RightForeArm RightHand
    LeftUpLegDummy LeftUpLeg
    LeftUpLeg LeftLeg
    LeftLeg LeftFoot
    LeftFoot LeftToes
  end

:SAMPLES-PER-SECOND 30
:FULLY-SPECIFIED
:DEGREES
145
root  -18.1279 31.1554 10.606 -157.28 -31.5688 -179.017
RightUpLeg  -26.0931 -33.4162 5.94564
RightLeg  42.2222 -17.6794 -13.6086
RightFoot  -11.8993 0.507867 5.24817
RightToes  -28.523 -0.133884 -0.241571
Spine  14.0593 -0.0395573 -4.97583
Spine1  24.9326 -0.185822 -4.49843
HEad  -6.22948 -19.0986 33.8212
LeftShoulder1  0 -2.42657e-020 -4.95415e-022
LeftArm  -4.25344 -29.6285 -78.5957
LeftForeArm  20.6168 -36.1884 -7.40951
LeftHand  0.150992 -1.19095 -14.9068
RightShoulder  0 2.42657e-020 1.07489e-018
RightArm  0.751245 15.0448 92.9394
RightForeArm  62.4138 61.4569 18.9486
RightHand  -4.71 15.1801 -33.9474
LeftUpLeg  -60.5473 17.1985 -16.1203
LeftLeg  39.6185 8.73862 6.27921
LeftFoot  -1.57273 -0.000757785 -0.0552187
LeftToes  6.20346 1.18758e-006 1.19596e-007
146
root  -17.8346 31.3687 10.8603 -158.782 -27.9868 -179.588
RightUpLeg  -24.4762 -32.7635 4.59711
RightLeg  40.2983 -18.1206 -13.0199
RightFoot  -12.3574 0.540734 5.36955
RightToes  -26.8664 -0.122948 -0.229607
Spine  13.0867 0.128517 -4.91
Spine1  23.4536 0.261056 -5.27789
HEad  -4.60186 -19.6129 34.2842
LeftShoulder1  0 -2.42657e-020 -4.95415e-022
LeftArm  -1.36714 -26.8642 -78.6949
LeftForeArm  21.9049 -37.6644 -7.82204
LeftHand  0.181414 -1.41547 -15.0494
RightShoulder  0 2.42657e-020 1.07489e-018
RightArm  -0.712052 9.03137 90.3706
RightForeArm  68.2974 68.0537 26.05
RightHand  -4.63567 15.486 -32.7977
LeftUpLeg  -57.8385 19.6773 -16.2755
LeftLeg  36.6811 10.1908 6.54962
LeftFoot  0.160535 -0.000218255 0.155787
LeftToes  4.74883 1.18758e-006 1.19596e-007
147
root  -17.5141 31.531 11.0871 -160.534 -24.7036 179.887
RightUpLeg  -22.3815 -30.9254 2.99099
RightLeg  38.5362 -18.4737 -12.4482
RightFoot  -12.2927 0.529426 5.2912
RightToes  -28.2472 -0.132039 -0.239601
Spine  12.374 0.185127 -4.74957
Spine1  22.2943 0.669269 -5.99007
HEad  -2.0779 -21.0327 34.7607
LeftShoulder1  0 -2.42657e-020 -4.95415e-022
LeftArm  1.21475 -24.6023 -79.4049
LeftForeArm  23.3253 -38.571 -8.0839
LeftHand  0.318628 -2.57412 -14.519
RightShoulder  0 2.42657e-020 1.07489e-018
RightArm  -2.11675 3.37696 88.1333
RightForeArm  78.7407 73.7471 37.4505
RightHand  -4.41034 15.3929 -31.4504
LeftUpLeg  -55.1305 22.329 -16.2964
LeftLeg  34.0547 11.3168 6.55629
LeftFoot  1.80475 -0.00744038 0.472372
LeftToes  3.63065 1.18758e-006 1.19596e-007
148
root  -17.1186 31.6837 11.3272 -162.012 -21.8774 179.518
RightUpLeg  -20.3879 -28.969 1.76289
RightLeg  36.3054 -18.0062 -11.1949
RightFoot  -12.0122 0.472877 4.87008
RightToes  -30.7777 -0.149313 -0.257335
Spine  11.431 0.0698282 -4.46208
Spine1  20.7203 0.714805 -6.61336
HEad  1.1231 -22.9525 35.0163
LeftShoulder1  0 -2.42657e-020 -4.95415e-022
LeftArm  4.31835 -22.1926 -80.105
LeftForeArm  24.1556 -39.7763 -8.44276
LeftHand  0.293651 -2.71959 -12.7254
RightShoulder  0 2.42657e-020 1.07489e-018
RightArm  -3.35187 -2.42338 86.3523
RightForeArm  96.1041 78.0154 56.7989
RightHand  -4.43912 15.9281 -30.6114
LeftUpLeg  -52.6904 24.5249 -15.9987
LeftLeg  31.229 12.5291 6.45214
LeftFoot  3.76124 -0.031085 0.946679
LeftToes  2.34595 1.18758e-006 1.19596e-007
149
root  -16.7035 31.8362 11.4831 -163.871 -18.9409 179.185
RightUpLeg  -17.8562 -27.2255 0.507868
RightLeg  33.8699 -16.8421 -9.56906
RightFoot  -12.4763 0.457808 4.5642
RightToes  -30.4488 -0.148979 -0.255073
Spine  10.7921 -0.188275 -4.17955
Spine1  19.7049 0.416539 -7.05205
HEad  4.02249 -23.8957 34.4285
LeftShoulder1  0 -2.42657e-020 -4.95415e-022
LeftArm  5.7848 -20.1015 -81.296
LeftForeArm  25.8607 -40.9181 -8.79479
LeftHand  0.333654 -3.54549 -11.1404
RightShoulder  0 2.42657e-020 1.07489e-018
RightArm  -4.57738 -7.75969 85.137
RightForeArm  127.261 79.9063 88.6
RightHand  -4.44312 16.7021 -29.2467
LeftUpLeg  -49.9727 27.6639 -15.7136
LeftLeg  28.4254 12.9831 5.908
LeftFoot  5.62375 -0.0688649 1.40201
LeftToes  1.2362 1.18758e-006 1.19596e-007
150
root  -16.1973 31.9843 11.575 -166.233 -15.959 179.607
RightUpLeg  -15.3808 -25.6315 0.278517
RightLeg  31.9337 -15.7503 -8.30032
RightFoot  -12.4764 0.413065 4.15528
RightToes  -29.5298 -0.141376 -0.248685
Spine  10.3622 -0.576582 -3.6504
Spine1  18.9952 -0.274973 -6.70427
HEad  7.77048 -24.0299 32.7317
LeftShoulder1  0 -2.42657e-020 -4.95415e-022
LeftArm  6.65426 -17.8293 -82.6756
LeftForeArm  26.5209 -43.0935 -9.50218
LeftHand  0.39447 -4.48802 -10.427
RightShoulder  0 2.42657e-020 1.07489e-018
RightArm  -6.34465 -12.9011 84.3161
RightForeArm  159.54 78.1554 121.743
RightHand  -4.46705 17.4636 -28.1366
LeftUpLeg  -47.2065 31.4311 -14.4131
LeftLeg  26.0131 13.0766 5.30663
LeftFoot  7.4242 -0.117123 1.80509
LeftToes  -0.641717 1.18758e-006 1.19596e-007
151
root  -15.6666 32.1679 11.682 -167.994 -12.6733 -179.907
RightUpLeg  -13.7559 -24.2814 0.502609
RightLeg  30.1573 -14.2099 -6.97182
RightFoot  -11.9459 0.328141 3.51327
RightToes  -28.7957 -0.135716 -0.243509
Spine  9.78874 -0.99337 -3.14033
Spine1  18.0322 -1.01145 -6.39737
HEad  12.1881 -23.1184 29.9041
LeftShoulder1  0 -2.42657e-020 -4.95415e-022
LeftArm  7.27237 -15.301 -83.807
LeftForeArm  26.918 -45.925 -10.5055
LeftHand  0.399121 -5.05049 -9.41401
RightShoulder  0 2.42657e-020 1.07489e-018
RightArm  -7.91315 -17.549 83.8764
RightForeArm  179.016 73.8682 141.821
RightHand  -4.34064 17.6306 -27.1039
LeftUpLeg  -44.4667 34.8965 -12.8556
LeftLeg  23.0166 13.427 4.65525
LeftFoot  9.23011 -0.18318 2.26894
LeftToes  -2.64123 1.18758e-006 1.19596e-007
152
root  -15.1161 32.3376 11.7821 -169.163 -9.26515 -179.558
RightUpLeg  -12.4063 -23.5867 0.832809
RightLeg  27.9517 -11.9214 -5.32293
RightFoot  -11.3393 0.234856 2.74301
RightToes  -28.9877 -0.137012 -0.239388
Spine  9.16162 -1.64375 -2.68581
Spine1  16.9469 -2.26789 -6.03159
HEad  16.2538 -21.0243 26.7387
LeftShoulder1  0 -2.42657e-020 -4.95415e-022
LeftArm  6.59698 -12.3409 -84.4669
LeftForeArm  26.5595 -49.6301 -11.9926
LeftHand  0.474334 -5.85438 -9.63754
RightShoulder  0 2.42657e-020 1.07489e-018
RightArm  -9.53378 -21.3793 83.8748
RightForeArm  -170.563 68.4847 152.95
RightHand  -4.24756 17.9697 -26.0381
LeftUpLeg  -42.1515 37.7802 -11.1847
LeftLeg  20.5994 13.454 4.04555
LeftFoot  8.73291 -0.161749 2.11807
LeftToes  -5.13872 1.18758e-006 1.19596e-007
153
root  -14.5503 32.5131 11.8939 -169.987 -5.78627 -179.213
RightUpLeg  -11.1799 -22.0567 1.46145
RightLeg  25.5267 -10.3303 -4.1129
RightFoot  -10.5552 0.165124 2.16513
RightToes  -28.4732 -0.137134 -0.235896
Spine  8.60388 -2.43 -2.23448
Spine1  15.9704 -3.92212 -5.39564
HEad  19.8658 -18.4502 23.7439
LeftShoulder1  0 -2.42657e-020 -4.95415e-022
LeftArm  5.69827 -9.61887 -84.8066
LeftForeArm  23.787 -52.8198 -13.4752
LeftHand  0.494859 -5.4758 -10.7035
RightShoulder  0 2.42657e-020 1.07489e-018
RightArm  -10.1164 -23.6408 83.2698
RightForeArm  -164.942 63.429 158.934
RightHand  -4.25671 17.9257 -26.1568
LeftUpLeg  -39.7691 38.7102 -8.39293
LeftLeg  19.3379 13.527 3.74838
LeftFoot  6.19546 -0.0789216 1.45823
LeftToes  -6.35107 1.18758e-006 1.19596e-007
154
root  -14.0224 32.6866 12.0155 -170.559 -1.85187 -179.256
RightUpLeg  -10.2808 -19.1361 1.82618
RightLeg  23.4546 -9.5965 -3.4299
RightFoot  -9.81432 0.124726 1.83034
RightToes  -27.4197 -0.136717 -0.233639
Spine  8.10078 -3.09849 -1.96908
Spine1  15.0797 -5.31061 -5.07976
HEad  22.8838 -15.3973 21.2107
LeftShoulder1  0 -2.42657e-020 -4.95415e-022
LeftArm  4.3321 -6.84836 -84.9456
LeftForeArm  19.9058 -55.1416 -14.7035
LeftHand  0.433032 -4.53713 -11.2853
RightShoulder  0 2.42657e-020 1.07489e-018
RightArm  -10.7779 -24.532 83.2441
RightForeArm  -162.127 59.7562 162
RightHand  -4.35255 18.3883 -26.064
LeftUpLeg  -36.7759 36.7969 -4.5852
LeftLeg  18.6644 12.5347 3.32202
LeftFoot  3.5922 -0.0225217 0.718189
LeftToes  -7.5762 1.18758e-006 1.19596e-007
